<svg id="Layer_1" data-name="Layer 1" xmlns="http://www.w3.org/2000/svg" viewBox="0 0 437.66 102.83"><defs><style>.cls-1,.cls-3{fill:#231f20;}.cls-2{fill:#21409a;}.cls-3{font-size:34px;font-family:AvenirLT-MediumOblique, "Avenir LT 65 Medium";font-weight:500;font-style:oblique;}.cls-4{letter-spacing:-0.11em;}.cls-5{letter-spacing:0em;}</style></defs><title>tech rehub logo</title><path class="cls-1" d="M77.42,194.88a2,2,0,0,0-2-2H65.48a2,2,0,0,1-2-2v-5.52a2,2,0,0,1,2-2h34.64a2,2,0,0,1,2,2v5.52a2,2,0,0,1-2,2H90.18a2,2,0,0,0-2,2v35.33a2,2,0,0,1-2,2H79.42a2,2,0,0,1-2-2Z" transform="translate(-63.48 -182.12)"/><path class="cls-1" d="M108,185.36a2,2,0,0,1,2-2h29.19a2,2,0,0,1,2,2v5.94a2,2,0,0,1-2,2H120.75a2,2,0,0,0-2,2v5.1a2,2,0,0,0,2,2h17.18a2,2,0,0,1,2,2v5.94a2,2,0,0,1-2,2H120.75a2,2,0,0,0-2,2v5.94a2,2,0,0,0,2,2h19.66a2,2,0,0,1,2,2v5.93a2,2,0,0,1-2,2H110a2,2,0,0,1-2-2Z" transform="translate(-63.48 -182.12)"/><path class="cls-1" d="M184.53,194.79a2.3,2.3,0,0,1-3-.12,9.32,9.32,0,0,0-2.46-1.58,13,13,0,0,0-5.35-1,13.47,13.47,0,0,0-10.11,4.45,15.63,15.63,0,0,0-3,5,19.05,19.05,0,0,0,0,12.59,15.77,15.77,0,0,0,2.94,5,13.25,13.25,0,0,0,4.38,3.27,12.54,12.54,0,0,0,5.41,1.18,12.15,12.15,0,0,0,5.87-1.38,11.48,11.48,0,0,0,2.91-2.34,2.16,2.16,0,0,1,2.9-.33l5.77,4.3a1.76,1.76,0,0,1,.24,2.66s-3.33,3.57-6.51,4.95a24.33,24.33,0,0,1-9.8,2.07,30,30,0,0,1-10.55-1.79,24.19,24.19,0,0,1-8.35-5.14,23.19,23.19,0,0,1-5.49-8.11,29.78,29.78,0,0,1,0-21.25,23.29,23.29,0,0,1,5.49-8.11,24.19,24.19,0,0,1,8.35-5.14,30.23,30.23,0,0,1,10.55-1.79,25.26,25.26,0,0,1,4.32.38,23.27,23.27,0,0,1,4.41,1.2,20.23,20.23,0,0,1,4.18,2.21,14.39,14.39,0,0,1,2.23,1.91,1.87,1.87,0,0,1-.19,2.74Z" transform="translate(-63.48 -182.12)"/><path class="cls-1" d="M198.3,185.36a2,2,0,0,1,2-2h6.77a2,2,0,0,1,2,2v14.22a2,2,0,0,0,2,2H228a2,2,0,0,0,2-2V185.36a2,2,0,0,1,2-2h6.77a2,2,0,0,1,2,2v44.85a2,2,0,0,1-2,2H232a2,2,0,0,1-2-2V213.1a2,2,0,0,0-2-2h-16.9a2,2,0,0,0-2,2v17.11a2,2,0,0,1-2,2H200.3a2,2,0,0,1-2-2Z" transform="translate(-63.48 -182.12)"/><path class="cls-2" d="M271.1,185.36a2,2,0,0,1,2-2H288c1.1,0,2.9,0,4,.1a37.86,37.86,0,0,1,5.08.62,16.85,16.85,0,0,1,5.86,2.42,12.11,12.11,0,0,1,4,4.55,15.42,15.42,0,0,1,1.49,7.15,14.33,14.33,0,0,1-2.69,8.79c-1.8,2.42-6,3.92-6,3.92a1.57,1.57,0,0,0-.85,2.38l10.36,17.21c.57.94.13,1.71-1,1.71h-8.9a3.65,3.65,0,0,1-2.93-1.77l-8.36-16a3.63,3.63,0,0,0-2.93-1.77h-1.31a2,2,0,0,0-2,2v15.52a2,2,0,0,1-2,2H273.1a2,2,0,0,1-2-2Zm10.76,16.22a2,2,0,0,0,2,2h2.35c1.1,0,2.89,0,4,0l1.08-.07a9.47,9.47,0,0,0,2.93-.62,5,5,0,0,0,2.18-1.62,5,5,0,0,0,.86-3.1,5.2,5.2,0,0,0-.76-3,5.05,5.05,0,0,0-1.93-1.69,8.73,8.73,0,0,0-2.69-.8l-1-.13c-1.07,0-2.85-.07-4-.07h-3a2,2,0,0,0-2,2Z" transform="translate(-63.48 -182.12)"/><path class="cls-2" d="M316.22,185.36a2,2,0,0,1,2-2h29.19a2,2,0,0,1,2,2v5.94a2,2,0,0,1-2,2H329a2,2,0,0,0-2,2v5.1a2,2,0,0,0,2,2h17.18a2,2,0,0,1,2,2v5.94a2,2,0,0,1-2,2H329a2,2,0,0,0-2,2v5.94a2,2,0,0,0,2,2h19.66a2,2,0,0,1,2,2v5.93a2,2,0,0,1-2,2H318.22a2,2,0,0,1-2-2Z" transform="translate(-63.48 -182.12)"/><path class="cls-2" d="M359.28,185.36a2,2,0,0,1,2-2H368a2,2,0,0,1,2,2v14.22a2,2,0,0,0,2,2H389a2,2,0,0,0,2-2V185.36a2,2,0,0,1,2-2h6.76a2,2,0,0,1,2,2v44.85a2,2,0,0,1-2,2H393a2,2,0,0,1-2-2V213.1a2,2,0,0,0-2-2H372a2,2,0,0,0-2,2v17.11a2,2,0,0,1-2,2h-6.76a2,2,0,0,1-2-2Z" transform="translate(-63.48 -182.12)"/><path class="cls-2" d="M452.84,211.37c0,1.1-.07,2.9-.16,4a28.51,28.51,0,0,1-1.15,6,17.53,17.53,0,0,1-3.9,6.35,17.93,17.93,0,0,1-6.45,4.21,27.19,27.19,0,0,1-17.87,0,17.93,17.93,0,0,1-6.45-4.21,17.53,17.53,0,0,1-3.9-6.35,28.12,28.12,0,0,1-1.16-6c-.08-1.1-.15-2.9-.15-4v-26a2,2,0,0,1,2-2h6.76a2,2,0,0,1,2,2V211c0,1.1.08,2.9.17,4a8.79,8.79,0,0,0,.56,2.22,10.13,10.13,0,0,0,2,3.35,9.19,9.19,0,0,0,3.14,2.2,9.85,9.85,0,0,0,4,.8,9.62,9.62,0,0,0,3.93-.8,9.27,9.27,0,0,0,3.11-2.2,10.13,10.13,0,0,0,2-3.35,8.79,8.79,0,0,0,.56-2.22c.09-1.09.17-2.89.17-4v-25.6a2,2,0,0,1,2-2h6.76a2,2,0,0,1,2,2Z" transform="translate(-63.48 -182.12)"/><path class="cls-2" d="M462.78,185.36a2,2,0,0,1,2-2H479c1.1,0,2.9,0,4,.07,0,0,2.25.08,4.39.38a17.74,17.74,0,0,1,5.76,1.79,11.09,11.09,0,0,1,4.14,3.76,11.6,11.6,0,0,1,1.58,6.42,10.27,10.27,0,0,1-2.31,6.87,14.41,14.41,0,0,1-4.28,3.06,16.18,16.18,0,0,0-1.82.9,13.4,13.4,0,0,0,1.95.5,11.41,11.41,0,0,1,2.43.92,11.94,11.94,0,0,1,3.38,2.55,10.86,10.86,0,0,1,2.17,3.62,12.67,12.67,0,0,1,.76,4.42,11.67,11.67,0,0,1-1.66,6.45,12.89,12.89,0,0,1-4.27,4.17,18.79,18.79,0,0,1-5.9,2.28,34.8,34.8,0,0,1-4.53.59c-1.09,0-2.89.1-4,.1h-16a2,2,0,0,1-2-2Zm10.76,15.53a2,2,0,0,0,2,2h3.8c1.1,0,2.74,0,3.64-.09l.81-.19a6.55,6.55,0,0,0,2.17-.9,4.64,4.64,0,0,0,1.55-1.65,5,5,0,0,0,.59-2.49,4.44,4.44,0,0,0-.66-2.51,4.52,4.52,0,0,0-1.69-1.56,8.27,8.27,0,0,0-2.34-.79l-.88-.16c-.92-.05-2.58-.08-3.68-.08h-3.31a2,2,0,0,0-2,2Zm0,20.21a2,2,0,0,0,2,2h5.66c1.1,0,2.75,0,3.67-.09l.85-.18a6.79,6.79,0,0,0,2.31-1,5.57,5.57,0,0,0,1.69-1.79,5.16,5.16,0,0,0,.66-2.69,4.32,4.32,0,0,0-.87-2.8,5.49,5.49,0,0,0-2.17-1.62,11.12,11.12,0,0,0-2.83-.76l-1-.14c-1,0-2.72-.07-3.82-.07h-4.14a2,2,0,0,0-2,2Z" transform="translate(-63.48 -182.12)"/><text class="cls-3" transform="translate(55.03 93.25)">Reviving <tspan class="cls-4" x="139.13" y="0">Y</tspan><tspan class="cls-5" x="156.16" y="0">our Devices</tspan></text></svg>